<?xml version="1.0" standalone="no"?>
<!DOCTYPE svg PUBLIC "-//W3C//DTD SVG 20010904//EN"
 "http://www.w3.org/TR/2001/REC-SVG-20010904/DTD/svg10.dtd">
<svg version="1.0" xmlns="http://www.w3.org/2000/svg"
 width="600.000000pt" height="600.000000pt" viewBox="0 0 600.000000 600.000000"
 preserveAspectRatio="xMidYMid meet">
<metadata>
Created by potrace 1.11, written by Peter Selinger 2001-2013
</metadata>
<g transform="translate(0.000000,600.000000) scale(0.100000,-0.100000)"
fill="#000000" stroke="none">
<path d="M1944 5905 c-76 -16 -167 -53 -242 -96 -42 -25 -245 -221 -773 -749
-776 -774 -768 -765 -824 -930 -44 -130 -46 -195 -43 -1215 4 -861 6 -966 21
-1022 24 -88 69 -185 121 -256 24 -34 361 -377 748 -762 760 -757 747 -746
913 -803 l80 -27 1030 -3 c1161 -3 1106 -6 1270 73 64 31 116 67 180 123 168
148 1359 1354 1400 1416 52 81 90 175 110 271 14 71 15 194 13 1090 l-3 1010
-24 70 c-12 39 -41 106 -64 150 -39 77 -66 106 -746 788 -388 390 -734 729
-767 753 -77 55 -154 90 -258 114 -78 19 -123 20 -1081 19 -794 0 -1013 -3
-1061 -14z m2049 -559 c42 -18 1373 -1351 1387 -1389 7 -19 10 -342 10 -978 0
-832 -2 -954 -15 -987 -20 -47 -1298 -1330 -1365 -1370 l-45 -27 -950 0 c-522
0 -963 4 -980 8 -42 11 -1369 1335 -1396 1392 -18 38 -19 82 -19 975 0 636 4
948 11 975 9 34 105 134 677 708 367 368 683 677 702 687 34 18 73 19 993 20
800 0 963 -2 990 -14z"/>
<path d="M1364 3640 c-101 -15 -182 -51 -250 -110 -159 -137 -178 -367 -43
-514 61 -67 111 -96 297 -171 151 -61 192 -89 192 -129 0 -63 -38 -86 -139
-86 -80 0 -145 21 -235 75 -32 19 -61 35 -65 34 -6 0 -120 -136 -165 -196
l-20 -26 38 -33 c52 -45 168 -100 262 -124 97 -25 252 -28 337 -5 259 68 393
298 307 526 -42 113 -101 157 -331 249 -193 77 -216 90 -225 127 -11 43 14 75
71 92 67 18 158 2 244 -45 74 -41 59 -48 160 81 l70 90 -22 23 c-91 98 -327
167 -483 142z"/>
<path d="M3382 3640 c-233 -32 -404 -184 -467 -415 -9 -33 -19 -118 -22 -190
-6 -156 16 -283 66 -385 104 -209 273 -311 516 -311 306 0 508 170 571 481 20
102 15 312 -11 405 -43 155 -155 299 -277 358 -108 51 -253 73 -376 57z m207
-318 c86 -53 138 -199 128 -362 -10 -158 -65 -273 -151 -314 -74 -35 -188 -14
-243 46 -99 106 -120 377 -42 536 61 124 192 165 308 94z"/>
<path d="M1890 3480 l0 -140 170 0 170 0 0 -490 0 -490 165 0 165 0 0 490 0
490 170 0 170 0 0 140 0 140 -505 0 -505 0 0 -140z"/>
<path d="M4120 2990 l0 -630 165 0 165 0 2 198 3 197 145 6 c107 5 162 12 210
27 217 71 323 243 298 485 -18 173 -133 292 -323 332 -53 11 -144 15 -367 15
l-298 0 0 -630z m591 344 c55 -32 74 -68 73 -133 -1 -66 -22 -111 -67 -145
-24 -18 -45 -21 -148 -24 l-119 -4 0 159 c0 88 3 163 8 167 4 5 55 6 114 3 80
-3 115 -9 139 -23z"/>
</g>
</svg>
