<?xml version="1.0" encoding="UTF-8" standalone="no"?>
<svg
   xmlns:dc="http://purl.org/dc/elements/1.1/"
   xmlns:cc="http://creativecommons.org/ns#"
   xmlns:rdf="http://www.w3.org/1999/02/22-rdf-syntax-ns#"
   xmlns:svg="http://www.w3.org/2000/svg"
   xmlns="http://www.w3.org/2000/svg"
   id="svg933"
   version="1.1"
   viewBox="0 0 158.75 158.75"
   height="600"
   width="600">
  <defs
     id="defs927" />
  <metadata
     id="metadata930">
    <rdf:RDF>
      <cc:Work
         rdf:about="">
        <dc:format>image/svg+xml</dc:format>
        <dc:type
           rdf:resource="http://purl.org/dc/dcmitype/StillImage" />
        <dc:title></dc:title>
      </cc:Work>
    </rdf:RDF>
  </metadata>
  <g
     transform="translate(0,-138.24998)"
     id="layer1">
    <path
       id="path1496"
       d="m 48.960377,148.02618 h 58.709993 l 40.38914,40.38914 v 58.70999 l -39.76457,39.76457 H 51.04229 L 11.590009,247.4376 v -59.43867 z"
       style="fill:#ff5555;stroke:none;stroke-width:0.26458332px;stroke-linecap:butt;stroke-linejoin:miter;stroke-opacity:1" />
    <g
       transform="matrix(3.287445,0,0,3.287445,51.003658,-536.30138)"
       id="text1887"
       style="font-style:normal;font-weight:normal;font-size:10.58333302px;line-height:1.25;font-family:sans-serif;letter-spacing:0px;word-spacing:0px;fill:#000000;fill-opacity:1;stroke:none;stroke-width:0.08048298"
       aria-label="STOP">
      <path
         id="path1926"
         style="font-style:normal;font-variant:normal;font-weight:900;font-stretch:normal;font-family:'Source Sans Pro';-inkscape-font-specification:'Source Sans Pro Heavy';stroke-width:0.08048298"
         d="m -7.9957138,233.22391 c 1.0943324,0.98489 2.5638644,1.4539 3.8457954,1.4539 2.5325964,0 3.97086191,-1.53207 3.97086191,-3.25173 0,-1.40701 -0.71913276,-2.28246 -1.98543241,-2.78274 l -1.2350302,-0.48463 c -0.9223666,-0.35956 -1.5007987,-0.53153 -1.5007987,-1.01616 0,-0.45336 0.4064678,-0.68786 1.0630657,-0.68786 0.7503994,0 1.3444629,0.25012 2.0323317,0.73476 l 1.34446411,-1.68839 c -0.93799921,-0.92236 -2.21993141,-1.3601 -3.37679581,-1.3601 -2.2199314,0 -3.783262,1.42263 -3.783262,3.15792 0,1.46953 0.9536318,2.3919 2.0479656,2.82963 l 1.2662968,0.53153 c 0.8598319,0.34395 1.3757322,0.50028 1.3757322,0.98491 0,0.45336 -0.343933,0.71913 -1.1568657,0.71913 -0.7503993,0 -1.657132,-0.40647 -2.3762632,-0.98491 z" />
      <path
         id="path1928"
         style="font-style:normal;font-variant:normal;font-weight:900;font-stretch:normal;font-family:'Source Sans Pro';-inkscape-font-specification:'Source Sans Pro Heavy';stroke-width:0.08048298"
         d="m 2.4161921,234.4902 h 2.6889297 v -7.91046 h 2.688931 v -2.25118 h -8.06679029 v 2.25118 H 2.4161921 Z" />
      <path
         id="path1930"
         style="font-style:normal;font-variant:normal;font-weight:900;font-stretch:normal;font-family:'Source Sans Pro';-inkscape-font-specification:'Source Sans Pro Heavy';stroke-width:0.08048298"
         d="m 12.456562,234.67781 c 2.813997,0 4.721261,-1.9698 4.721261,-5.31533 0,-3.32988 -1.907264,-5.22152 -4.721261,-5.22152 -2.8139954,0 -4.7212605,1.876 -4.7212605,5.22152 0,3.34553 1.9072651,5.31533 4.7212605,5.31533 z m 0,-2.31373 c -1.219396,0 -1.969797,-1.15686 -1.969797,-3.0016 0,-1.84473 0.750401,-2.90779 1.969797,-2.90779 1.219399,0 1.969798,1.06306 1.969798,2.90779 0,1.84474 -0.750399,3.0016 -1.969798,3.0016 z" />
      <path
         id="path1932"
         style="font-style:normal;font-variant:normal;font-weight:900;font-stretch:normal;font-family:'Source Sans Pro';-inkscape-font-specification:'Source Sans Pro Heavy';stroke-width:0.08048298"
         d="m 17.640223,234.4902 h 2.688931 v -3.22045 h 1.250663 c 2.126132,0 4.064662,-1.07872 4.064662,-3.56441 0,-2.56385 -1.875997,-3.37678 -4.064662,-3.37678 h -3.939594 z m 2.688931,-5.34658 v -2.68893 h 1.125597 c 1.000532,0 1.563331,0.34392 1.563331,1.25065 0,0.90675 -0.500267,1.43828 -1.563331,1.43828 z" />
    </g>
    <path
       id="path1971"
       d="m 55.434451,140.27623 c -5.218753,0 -10.211147,2.0782 -13.90194,5.769 L 7.3968284,180.16686 c -3.6833802,3.69044 -5.7549582,8.66915 -5.7549582,13.88789 v 48.26268 c 0,5.21883 2.0750359,10.20776 5.7549582,13.90195 l 34.1356826,34.13568 c 3.692822,3.68568 8.68809,5.7409 13.90194,5.7409 h 48.248619 c 5.21883,0 10.21115,-2.06416 13.90195,-5.75495 l 34.13567,-34.12163 c 3.68569,-3.69283 5.75497,-8.68399 5.75497,-13.90195 v -48.26268 c 0,-5.21867 -2.07496,-10.19363 -5.75497,-13.88789 v -0.0144 l -34.13567,-34.12164 c -3.6929,-3.68569 -8.68809,-5.75496 -13.90195,-5.75496 z m 0,14.78842 h 48.248619 c 1.25614,0 2.56616,0.52879 3.46142,1.42111 l 34.12164,34.12162 c 0.9395,0.94729 1.42117,2.11409 1.42117,3.44737 v 48.26268 c 0,1.33805 -0.47474,2.51227 -1.42117,3.46143 l -34.12164,34.10758 c -0.89526,0.89232 -2.20542,1.43523 -3.46142,1.43523 H 55.434451 c -1.255991,0 -2.566799,-0.54032 -3.461418,-1.43523 L 17.851396,245.77886 c -0.946202,-0.94923 -1.421178,-2.12346 -1.421106,-3.46143 v -48.26268 c 0,-1.33789 0.480523,-2.50692 1.421106,-3.44737 l 34.121637,-34.12162 c 0.895126,-0.89226 2.20536,-1.42111 3.461418,-1.42111 z"
       style="color:#000000;font-style:normal;font-variant:normal;font-weight:normal;font-stretch:normal;font-size:medium;line-height:normal;font-family:sans-serif;font-variant-ligatures:normal;font-variant-position:normal;font-variant-caps:normal;font-variant-numeric:normal;font-variant-alternates:normal;font-feature-settings:normal;text-indent:0;text-align:start;text-decoration:none;text-decoration-line:none;text-decoration-style:solid;text-decoration-color:#000000;letter-spacing:normal;word-spacing:normal;text-transform:none;writing-mode:lr-tb;direction:ltr;text-orientation:mixed;dominant-baseline:auto;baseline-shift:baseline;text-anchor:start;white-space:normal;shape-padding:0;clip-rule:nonzero;display:inline;overflow:visible;visibility:visible;opacity:1;isolation:auto;mix-blend-mode:normal;color-interpolation:sRGB;color-interpolation-filters:linearRGB;solid-color:#000000;solid-opacity:1;vector-effect:none;fill:#000000;fill-opacity:1;fill-rule:nonzero;stroke:none;stroke-width:1.20000017;stroke-linecap:butt;stroke-linejoin:miter;stroke-miterlimit:4;stroke-dasharray:none;stroke-dashoffset:0;stroke-opacity:1;color-rendering:auto;image-rendering:auto;shape-rendering:auto;text-rendering:auto;enable-background:accumulate" />
  </g>
</svg>
