<?xml version="1.0" encoding="UTF-8" standalone="no"?>
<!-- Created with Inkscape (http://www.inkscape.org/) -->

<svg
   xmlns:dc="http://purl.org/dc/elements/1.1/"
   xmlns:cc="http://creativecommons.org/ns#"
   xmlns:rdf="http://www.w3.org/1999/02/22-rdf-syntax-ns#"
   xmlns:svg="http://www.w3.org/2000/svg"
   xmlns="http://www.w3.org/2000/svg"
   xmlns:sodipodi="http://sodipodi.sourceforge.net/DTD/sodipodi-0.dtd"
   xmlns:inkscape="http://www.inkscape.org/namespaces/inkscape"
   width="342"
   height="86"
   viewBox="0 0 90.487485 22.754171"
   version="1.1"
   id="svg1340"
   inkscape:version="0.92.4 (unknown)"
   sodipodi:docname="logo.svg">
  <defs
     id="defs1334" />
  <sodipodi:namedview
     id="base"
     pagecolor="#ffffff"
     bordercolor="#666666"
     borderopacity="1.0"
     inkscape:pageopacity="0.0"
     inkscape:pageshadow="2"
     inkscape:zoom="2.8"
     inkscape:cx="183.35559"
     inkscape:cy="29.639766"
     inkscape:document-units="mm"
     inkscape:current-layer="g2055"
     showgrid="false"
     units="px"
     inkscape:window-width="1920"
     inkscape:window-height="983"
     inkscape:window-x="0"
     inkscape:window-y="34"
     inkscape:window-maximized="1" />
  <metadata
     id="metadata1337">
    <rdf:RDF>
      <cc:Work
         rdf:about="">
        <dc:format>image/svg+xml</dc:format>
        <dc:type
           rdf:resource="http://purl.org/dc/dcmitype/StillImage" />
        <dc:title></dc:title>
      </cc:Work>
    </rdf:RDF>
  </metadata>
  <g
     inkscape:label="Capa 1"
     inkscape:groupmode="layer"
     id="layer1"
     transform="translate(0,-274.24579)">
    <g
       id="g2013"
       transform="matrix(0.48512125,0,0,0.48512126,78.428383,203.15787)"
       style="stroke-width:2.06134033">
      <g
         id="g2055"
         transform="translate(-269.62508,-226.03058)">
        <g
           style="stroke-width:0.63393933"
           transform="matrix(3.2516368,0,0,3.2516367,91.566402,-462.8054)"
           id="g1967">
          <path
             inkscape:connector-curvature="0"
             id="path1895"
             style="font-style:normal;font-variant:normal;font-weight:900;font-stretch:normal;font-size:10.58333302px;line-height:1.25;font-family:'Source Sans Pro';-inkscape-font-specification:'Source Sans Pro Heavy';letter-spacing:0px;word-spacing:0px;fill:#000000;fill-opacity:1;stroke:none;stroke-width:0.16772977"
             d="m 19.842706,260.87282 c 0,2.3495 1.524,3.51367 3.323166,3.51367 0.846667,0 1.640417,-0.33867 2.2225,-1.016 l -0.994833,-1.10067 c -0.296334,0.3175 -0.677334,0.55034 -1.2065,0.55034 -0.889,0 -1.481667,-0.71967 -1.481667,-2.01084 0,-1.24883 0.6985,-1.98966 1.524,-1.98966 0.4445,0 0.740833,0.16933 1.0795,0.46566 l 0.994833,-1.12183 c -0.486833,-0.48683 -1.227666,-0.91017 -2.095499,-0.91017 -1.778,0 -3.3655,1.31234 -3.3655,3.6195 z" />
          <path
             inkscape:connector-curvature="0"
             id="path1897"
             style="font-style:normal;font-variant:normal;font-weight:900;font-stretch:normal;font-size:10.58333302px;line-height:1.25;font-family:'Source Sans Pro';-inkscape-font-specification:'Source Sans Pro Heavy';letter-spacing:0px;word-spacing:0px;fill:#000000;fill-opacity:1;stroke:none;stroke-width:0.16772977"
             d="m 28.001794,261.39141 0.116417,-0.47625 c 0.169333,-0.65617 0.338666,-1.48167 0.486833,-2.18017 h 0.04233 c 0.169334,0.68792 0.338667,1.524 0.508,2.18017 l 0.116417,0.47625 z m 1.93675,2.86808 h 1.926167 l -2.0955,-6.87917 h -2.201334 l -2.095499,6.87917 h 1.862666 l 0.338667,-1.4605 h 1.926166 z" />
          <path
             inkscape:connector-curvature="0"
             id="path1899"
             style="font-style:normal;font-variant:normal;font-weight:900;font-stretch:normal;font-size:10.58333302px;line-height:1.25;font-family:'Source Sans Pro';-inkscape-font-specification:'Source Sans Pro Heavy';letter-spacing:0px;word-spacing:0px;fill:#000000;fill-opacity:1;stroke:none;stroke-width:0.16772977"
             d="m 32.097378,263.40224 c 0.740834,0.66675 1.735667,0.98425 2.6035,0.98425 1.7145,0 2.688167,-1.03717 2.688167,-2.20133 0,-0.9525 -0.486833,-1.54517 -1.344083,-1.88384 l -0.836084,-0.32808 c -0.624416,-0.24342 -1.016,-0.35983 -1.016,-0.68792 0,-0.30691 0.275167,-0.46566 0.719667,-0.46566 0.508,0 0.910167,0.16933 1.375833,0.49741 l 0.910167,-1.143 c -0.635,-0.62441 -1.502833,-0.92075 -2.286,-0.92075 -1.502833,0 -2.561167,0.96309 -2.561167,2.13784 0,0.99483 0.645584,1.61925 1.386417,1.91558 l 0.85725,0.35983 c 0.582083,0.23284 0.931333,0.33867 0.931333,0.66675 0,0.30692 -0.232833,0.48684 -0.783166,0.48684 -0.508,0 -1.121834,-0.27517 -1.608667,-0.66675 z" />
          <path
             inkscape:connector-curvature="0"
             id="path1901"
             style="font-style:normal;font-variant:normal;font-weight:900;font-stretch:normal;font-size:10.58333302px;line-height:1.25;font-family:'Source Sans Pro';-inkscape-font-specification:'Source Sans Pro Heavy';letter-spacing:0px;word-spacing:0px;fill:#000000;fill-opacity:1;stroke:none;stroke-width:0.16772977"
             d="m 40.156091,261.39141 0.116417,-0.47625 c 0.169333,-0.65617 0.338666,-1.48167 0.486833,-2.18017 h 0.04233 c 0.169334,0.68792 0.338667,1.524 0.508,2.18017 l 0.116417,0.47625 z m 1.93675,2.86808 h 1.926167 l -2.0955,-6.87917 h -2.201334 l -2.0955,6.87917 h 1.862667 l 0.338667,-1.4605 h 1.926166 z" />
          <path
             inkscape:connector-curvature="0"
             id="path1903"
             style="font-style:normal;font-variant:normal;font-weight:900;font-stretch:normal;font-size:10.58333302px;line-height:1.25;font-family:'Source Sans Pro';-inkscape-font-specification:'Source Sans Pro Heavy';letter-spacing:0px;word-spacing:0px;fill:#000000;fill-opacity:1;stroke:none;stroke-width:0.16772977"
             d="m 44.251674,263.40224 c 0.740834,0.66675 1.735667,0.98425 2.6035,0.98425 1.7145,0 2.688167,-1.03717 2.688167,-2.20133 0,-0.9525 -0.486833,-1.54517 -1.344083,-1.88384 l -0.836084,-0.32808 c -0.624416,-0.24342 -1.016,-0.35983 -1.016,-0.68792 0,-0.30691 0.275167,-0.46566 0.719667,-0.46566 0.508,0 0.910167,0.16933 1.375833,0.49741 l 0.910167,-1.143 c -0.635,-0.62441 -1.502833,-0.92075 -2.286,-0.92075 -1.502833,0 -2.561167,0.96309 -2.561167,2.13784 0,0.99483 0.645584,1.61925 1.386417,1.91558 l 0.85725,0.35983 c 0.582083,0.23284 0.931333,0.33867 0.931333,0.66675 0,0.30692 -0.232833,0.48684 -0.783166,0.48684 -0.508,0 -1.121834,-0.27517 -1.608667,-0.66675 z" />
          <path
             inkscape:connector-curvature="0"
             id="path1905"
             style="font-style:normal;font-variant:normal;font-weight:900;font-stretch:normal;font-size:10.58333302px;line-height:1.25;font-family:'Source Sans Pro';-inkscape-font-specification:'Source Sans Pro Heavy';letter-spacing:0px;word-spacing:0px;fill:#000000;fill-opacity:1;stroke:none;stroke-width:0.16772977"
             d="m 50.648805,264.25949 h 2.137833 c 1.989666,0 3.429,-1.03717 3.429,-3.47133 0,-2.43417 -1.439334,-3.40784 -3.534834,-3.40784 h -2.031999 z m 1.820333,-1.4605 v -3.95817 h 0.105833 c 0.994833,0 1.778,0.33867 1.778,1.94734 0,1.60866 -0.783167,2.01083 -1.778,2.01083 z" />
          <path
             inkscape:connector-curvature="0"
             id="path1907"
             style="font-style:normal;font-variant:normal;font-weight:900;font-stretch:normal;font-size:10.58333302px;line-height:1.25;font-family:'Source Sans Pro';-inkscape-font-specification:'Source Sans Pro Heavy';letter-spacing:0px;word-spacing:0px;fill:#000000;fill-opacity:1;stroke:none;stroke-width:0.16772977"
             d="m 57.449422,264.25949 h 4.550833 v -1.524 h -2.7305 v -1.22767 h 2.243667 v -1.524 h -2.243667 v -1.0795 h 2.624667 v -1.524 h -4.445 z" />
        </g>
        <g
           style="stroke-width:0.73011446"
           transform="matrix(2.8233113,0,0,2.8233112,101.02338,-364.90604)"
           id="g1958">
          <path
             inkscape:connector-curvature="0"
             id="path1909"
             style="font-style:normal;font-variant:normal;font-weight:900;font-stretch:normal;font-size:10.58333302px;line-height:1.25;font-family:'Source Sans Pro';-inkscape-font-specification:'Source Sans Pro Heavy';letter-spacing:0px;word-spacing:0px;fill:#000000;fill-opacity:1;stroke:none;stroke-width:0.19317612"
             d="m 21.800622,274.72393 0.116417,-0.47625 c 0.169333,-0.65617 0.338667,-1.48167 0.486833,-2.18017 h 0.04233 c 0.169333,0.68792 0.338666,1.524 0.508,2.18017 l 0.116416,0.47625 z m 1.93675,2.86808 h 1.926167 l -2.0955,-6.87917 h -2.201333 l -2.0955,6.87917 h 1.862666 l 0.338667,-1.4605 h 1.926167 z" />
          <path
             inkscape:connector-curvature="0"
             id="path1911"
             style="font-style:normal;font-variant:normal;font-weight:900;font-stretch:normal;font-size:10.58333302px;line-height:1.25;font-family:'Source Sans Pro';-inkscape-font-specification:'Source Sans Pro Heavy';letter-spacing:0px;word-spacing:0px;fill:#000000;fill-opacity:1;stroke:none;stroke-width:0.19317612"
             d="m 26.31954,277.59201 h 1.820333 v -2.18017 h 0.846667 c 1.439333,0 2.751666,-0.73025 2.751666,-2.413 0,-1.73566 -1.27,-2.286 -2.751666,-2.286 h -2.667 z m 1.820333,-3.6195 v -1.82033 h 0.762 c 0.677333,0 1.058333,0.23283 1.058333,0.84666 0,0.61384 -0.338666,0.97367 -1.058333,0.97367 z" />
          <path
             inkscape:connector-curvature="0"
             id="path1913"
             style="font-style:normal;font-variant:normal;font-weight:900;font-stretch:normal;font-size:10.58333302px;line-height:1.25;font-family:'Source Sans Pro';-inkscape-font-specification:'Source Sans Pro Heavy';letter-spacing:0px;word-spacing:0px;fill:#000000;fill-opacity:1;stroke:none;stroke-width:0.19317612"
             d="m 32.809108,274.26884 c 0,2.3495 0.931333,3.45017 2.8575,3.45017 1.926166,0 2.815166,-1.10067 2.815166,-3.45017 v -3.556 h -1.756833 v 3.76767 c 0,1.22767 -0.338666,1.67217 -1.058333,1.67217 -0.719667,0 -1.037167,-0.4445 -1.037167,-1.67217 v -3.76767 h -1.820333 z" />
          <path
             inkscape:connector-curvature="0"
             id="path1915"
             style="font-style:normal;font-variant:normal;font-weight:900;font-stretch:normal;font-size:10.58333302px;line-height:1.25;font-family:'Source Sans Pro';-inkscape-font-specification:'Source Sans Pro Heavy';letter-spacing:0px;word-spacing:0px;fill:#000000;fill-opacity:1;stroke:none;stroke-width:0.19317612"
             d="m 39.962117,277.59201 h 4.550833 v -1.524 h -2.7305 v -1.22767 h 2.243667 v -1.524 H 41.78245 v -1.0795 h 2.624667 v -1.524 h -4.445 z" />
          <path
             inkscape:connector-curvature="0"
             id="path1917"
             style="font-style:normal;font-variant:normal;font-weight:900;font-stretch:normal;font-size:10.58333302px;line-height:1.25;font-family:'Source Sans Pro';-inkscape-font-specification:'Source Sans Pro Heavy';letter-spacing:0px;word-spacing:0px;fill:#000000;fill-opacity:1;stroke:none;stroke-width:0.19317612"
             d="m 45.429897,276.73476 c 0.740833,0.66675 1.735667,0.98425 2.6035,0.98425 1.7145,0 2.688167,-1.03717 2.688167,-2.20133 0,-0.9525 -0.486834,-1.54517 -1.344084,-1.88384 l -0.836083,-0.32808 c -0.624417,-0.24342 -1.016,-0.35983 -1.016,-0.68792 0,-0.30691 0.275167,-0.46566 0.719667,-0.46566 0.508,0 0.910166,0.16933 1.375833,0.49741 l 0.910167,-1.143 c -0.635,-0.62441 -1.502834,-0.92075 -2.286,-0.92075 -1.502834,0 -2.561167,0.96309 -2.561167,2.13784 0,0.99483 0.645583,1.61925 1.386417,1.91558 l 0.85725,0.35983 c 0.582083,0.23284 0.931333,0.33867 0.931333,0.66675 0,0.30692 -0.232833,0.48684 -0.783167,0.48684 -0.508,0 -1.121833,-0.27517 -1.608666,-0.66675 z" />
          <path
             inkscape:connector-curvature="0"
             id="path1919"
             style="font-style:normal;font-variant:normal;font-weight:900;font-stretch:normal;font-size:10.58333302px;line-height:1.25;font-family:'Source Sans Pro';-inkscape-font-specification:'Source Sans Pro Heavy';letter-spacing:0px;word-spacing:0px;fill:#000000;fill-opacity:1;stroke:none;stroke-width:0.19317612"
             d="m 52.932654,277.59201 h 1.820333 v -5.35517 h 1.820333 v -1.524 h -5.461 v 1.524 h 1.820334 z" />
          <path
             inkscape:connector-curvature="0"
             id="path1921"
             style="font-style:normal;font-variant:normal;font-weight:900;font-stretch:normal;font-size:10.58333302px;line-height:1.25;font-family:'Source Sans Pro';-inkscape-font-specification:'Source Sans Pro Heavy';letter-spacing:0px;word-spacing:0px;fill:#000000;fill-opacity:1;stroke:none;stroke-width:0.19317612"
             d="m 58.842286,274.72393 0.116417,-0.47625 c 0.169333,-0.65617 0.338667,-1.48167 0.486833,-2.18017 h 0.04233 c 0.169333,0.68792 0.338666,1.524 0.508,2.18017 l 0.116416,0.47625 z m 1.93675,2.86808 h 1.926167 l -2.0955,-6.87917 H 58.40837 l -2.0955,6.87917 h 1.862666 l 0.338667,-1.4605 h 1.926167 z" />
          <path
             inkscape:connector-curvature="0"
             id="path1923"
             style="font-style:normal;font-variant:normal;font-weight:900;font-stretch:normal;font-size:10.58333302px;line-height:1.25;font-family:'Source Sans Pro';-inkscape-font-specification:'Source Sans Pro Heavy';letter-spacing:0px;word-spacing:0px;fill:#000000;fill-opacity:1;stroke:none;stroke-width:0.19317612"
             d="m 62.937874,276.73476 c 0.740833,0.66675 1.735666,0.98425 2.6035,0.98425 1.714499,0 2.688166,-1.03717 2.688166,-2.20133 0,-0.9525 -0.486833,-1.54517 -1.344083,-1.88384 l -0.836084,-0.32808 c -0.624416,-0.24342 -1.015999,-0.35983 -1.015999,-0.68792 0,-0.30691 0.275166,-0.46566 0.719666,-0.46566 0.508,0 0.910167,0.16933 1.375833,0.49741 l 0.910167,-1.143 c -0.635,-0.62441 -1.502833,-0.92075 -2.286,-0.92075 -1.502833,0 -2.561166,0.96309 -2.561166,2.13784 0,0.99483 0.645583,1.61925 1.386416,1.91558 l 0.85725,0.35983 c 0.582083,0.23284 0.931333,0.33867 0.931333,0.66675 0,0.30692 -0.232833,0.48684 -0.783166,0.48684 -0.508,0 -1.121833,-0.27517 -1.608667,-0.66675 z" />
        </g>
        <g
           aria-label="STOP"
           style="font-style:normal;font-weight:normal;font-size:10.58333302px;line-height:1.25;font-family:sans-serif;letter-spacing:0px;word-spacing:0px;fill:#000000;fill-opacity:1;stroke:none;stroke-width:0.59436405"
           id="text1887"
           transform="matrix(0.9176131,0,0,0.9176131,123.31474,185.77074)">
          <path
             d="m -7.9957138,233.22391 c 1.0943324,0.98489 2.5638644,1.4539 3.8457954,1.4539 2.5325964,0 3.97086191,-1.53207 3.97086191,-3.25173 0,-1.40701 -0.71913276,-2.28246 -1.98543241,-2.78274 l -1.2350302,-0.48463 c -0.9223666,-0.35956 -1.5007987,-0.53153 -1.5007987,-1.01616 0,-0.45336 0.4064678,-0.68786 1.0630657,-0.68786 0.7503994,0 1.3444629,0.25012 2.0323317,0.73476 l 1.34446411,-1.68839 c -0.93799921,-0.92236 -2.21993141,-1.3601 -3.37679581,-1.3601 -2.2199314,0 -3.783262,1.42263 -3.783262,3.15792 0,1.46953 0.9536318,2.3919 2.0479656,2.82963 l 1.2662968,0.53153 c 0.8598319,0.34395 1.3757322,0.50028 1.3757322,0.98491 0,0.45336 -0.343933,0.71913 -1.1568657,0.71913 -0.7503993,0 -1.657132,-0.40647 -2.3762632,-0.98491 z"
             style="font-style:normal;font-variant:normal;font-weight:900;font-stretch:normal;font-family:'Source Sans Pro';-inkscape-font-specification:'Source Sans Pro Heavy';stroke-width:0.59436405"
             id="path1926"
             inkscape:connector-curvature="0" />
          <path
             d="m 2.4161921,234.4902 h 2.6889297 v -7.91046 h 2.688931 v -2.25118 h -8.06679029 v 2.25118 H 2.4161921 Z"
             style="font-style:normal;font-variant:normal;font-weight:900;font-stretch:normal;font-family:'Source Sans Pro';-inkscape-font-specification:'Source Sans Pro Heavy';stroke-width:0.59436405"
             id="path1928"
             inkscape:connector-curvature="0" />
          <path
             d="m 12.456562,234.67781 c 2.813997,0 4.721261,-1.9698 4.721261,-5.31533 0,-3.32988 -1.907264,-5.22152 -4.721261,-5.22152 -2.8139954,0 -4.7212605,1.876 -4.7212605,5.22152 0,3.34553 1.9072651,5.31533 4.7212605,5.31533 z m 0,-2.31373 c -1.219396,0 -1.969797,-1.15686 -1.969797,-3.0016 0,-1.84473 0.750401,-2.90779 1.969797,-2.90779 1.219399,0 1.969798,1.06306 1.969798,2.90779 0,1.84474 -0.750399,3.0016 -1.969798,3.0016 z"
             style="font-style:normal;font-variant:normal;font-weight:900;font-stretch:normal;font-family:'Source Sans Pro';-inkscape-font-specification:'Source Sans Pro Heavy';stroke-width:0.59436405"
             id="path1930"
             inkscape:connector-curvature="0" />
          <path
             d="m 17.640223,234.4902 h 2.688931 v -3.22045 h 1.250663 c 2.126132,0 4.064662,-1.07872 4.064662,-3.56441 0,-2.56385 -1.875997,-3.37678 -4.064662,-3.37678 h -3.939594 z m 2.688931,-5.34658 v -2.68893 h 1.125597 c 1.000532,0 1.563331,0.34392 1.563331,1.25065 0,0.90675 -0.500267,1.43828 -1.563331,1.43828 z"
             style="font-style:normal;font-variant:normal;font-weight:900;font-stretch:normal;font-family:'Source Sans Pro';-inkscape-font-specification:'Source Sans Pro Heavy';stroke-width:0.59436405"
             id="path1932"
             inkscape:connector-curvature="0" />
        </g>
        <path
           inkscape:connector-curvature="0"
           d="m 138.57354,417.54884 h -13.8088 c -1.17043,0 -2.27244,-0.45623 -3.10231,-1.28449 l -9.76446,-9.76286 c -0.82827,-0.83148 -1.28449,-1.93157 -1.28449,-3.10393 v -13.80879 c 0,-1.17236 0.45622,-2.27244 1.28449,-3.10231 l 9.76446,-9.76287 c 0.82987,-0.82987 1.92995,-1.28609 3.10231,-1.28609 h 13.8088 c 1.17043,0 2.27243,0.45622 3.10231,1.28449 l 9.76447,9.76286 c 0.82827,0.83148 1.28449,1.93156 1.28449,3.10392 v 13.80718 c 0,1.17205 -0.45622,2.27406 -1.28449,3.10393 l -9.76447,9.76286 c -0.82988,0.82987 -1.92995,1.2861 -3.10231,1.2861 z m -13.8088,-40.35682 c -0.69333,0 -1.37059,0.28081 -1.86183,0.77045 l -9.76447,9.76446 c -0.4967,0.4967 -0.77044,1.15823 -0.77044,1.86184 v 13.80718 c 0,0.70362 0.27374,1.36515 0.77044,1.86345 l 9.76447,9.76286 c 0.49124,0.49124 1.1685,0.77205 1.86183,0.77205 h 13.8088 c 0.69332,0 1.37059,-0.28081 1.86184,-0.77044 l 9.76446,-9.76286 c 0.49671,-0.49831 0.77044,-1.15983 0.77044,-1.86345 v -13.80879 c 0,-0.70361 -0.27373,-1.36514 -0.77044,-1.86344 l -9.76446,-9.76286 c -0.49125,-0.48964 -1.16852,-0.77045 -1.86184,-0.77045 z m 0,0"
           id="path1971"
           style="stroke:#000000;stroke-width:2.47360873;stroke-miterlimit:4;stroke-dasharray:none;stroke-opacity:1" />
      </g>
    </g>
  </g>
</svg>