<?xml version="1.0" encoding="UTF-8" standalone="no"?>
<svg
   xmlns:dc="http://purl.org/dc/elements/1.1/"
   xmlns:cc="http://creativecommons.org/ns#"
   xmlns:rdf="http://www.w3.org/1999/02/22-rdf-syntax-ns#"
   xmlns:svg="http://www.w3.org/2000/svg"
   xmlns="http://www.w3.org/2000/svg"
   xmlns:sodipodi="http://sodipodi.sourceforge.net/DTD/sodipodi-0.dtd"
   xmlns:inkscape="http://www.inkscape.org/namespaces/inkscape"
   viewBox="0 0 512 512"
   version="1.1"
   id="svg948"
   sodipodi:docname="025-instagram.svg"
   inkscape:version="0.92.4 (unknown)">
  <metadata
     id="metadata954">
    <rdf:RDF>
      <cc:Work
         rdf:about="">
        <dc:format>image/svg+xml</dc:format>
        <dc:type
           rdf:resource="http://purl.org/dc/dcmitype/StillImage" />
      </cc:Work>
    </rdf:RDF>
  </metadata>
  <defs
     id="defs952" />
  <sodipodi:namedview
     pagecolor="#ffffff"
     bordercolor="#666666"
     borderopacity="1"
     objecttolerance="10"
     gridtolerance="10"
     guidetolerance="10"
     inkscape:pageopacity="0"
     inkscape:pageshadow="2"
     inkscape:window-width="1920"
     inkscape:window-height="983"
     id="namedview950"
     showgrid="false"
     inkscape:zoom="0.921875"
     inkscape:cx="120.64951"
     inkscape:cy="103.44295"
     inkscape:window-x="0"
     inkscape:window-y="34"
     inkscape:window-maximized="1"
     inkscape:current-layer="svg948" />
  <path
     d="M 126.38558,439.32202 H 385.6144 c 29.61472,0 53.70762,-24.0929 53.70762,-53.70762 V 126.38558 c 0,-29.614715 -24.0929,-53.707618 -53.70762,-53.707618 H 126.38558 c -29.614715,0 -53.707618,24.092903 -53.707618,53.707618 V 385.6144 c 0,29.61472 24.092903,53.70762 53.707618,53.70762 z M 94.161015,126.38558 c 0,-17.76827 14.456295,-32.224565 32.224565,-32.224565 H 385.6144 c 17.76827,0 32.22456,14.456295 32.22456,32.224565 V 385.6144 c 0,17.76827 -14.45629,32.22456 -32.22456,32.22456 H 126.38558 c -17.76827,0 -32.224565,-14.45629 -32.224565,-32.22456 z m 0,0"
     id="path942"
     inkscape:connector-curvature="0"
     style="fill:#000000;fill-opacity:1;stroke:#000000;stroke-width:14;stroke-miterlimit:4;stroke-dasharray:none;stroke-opacity:1" />
  <path
     d="m 255.99999,352.67371 c 53.30481,0 96.67372,-43.36891 96.67372,-96.67372 0,-53.30482 -43.36891,-96.67373 -96.67372,-96.67373 -53.30482,0 -96.67373,43.36891 -96.67373,96.67373 0,53.30481 43.36891,96.67372 96.67373,96.67372 z m 0,-171.86439 c 41.46117,0 75.19067,33.72951 75.19067,75.19067 0,41.46117 -33.7295,75.19067 -75.19067,75.19067 -41.46116,0 -75.19067,-33.7295 -75.19067,-75.19067 0,-41.46116 33.72951,-75.19067 75.19067,-75.19067 z m 0,0"
     id="path944"
     inkscape:connector-curvature="0"
     style="fill:#000000;fill-opacity:1;stroke:#000000;stroke-width:14;stroke-miterlimit:4;stroke-dasharray:none;stroke-opacity:1" />
  <path
     d="m 363.41524,173.65741 c 13.82479,0 25.07267,-11.24788 25.07267,-25.07267 0,-13.8248 -11.24788,-25.07268 -25.07267,-25.07268 -13.82479,0 -25.07268,11.24788 -25.07268,25.07268 0,13.82479 11.24789,25.07267 25.07268,25.07267 z"
     id="path946"
     inkscape:connector-curvature="0"
     style="fill:#000000;fill-opacity:1;stroke:#000000;stroke-width:14;stroke-miterlimit:4;stroke-dasharray:none;stroke-opacity:1"
     sodipodi:nodetypes="sssss" />
</svg>
