<?xml version="1.0" encoding="UTF-8" standalone="no"?>
<svg
   xmlns:dc="http://purl.org/dc/elements/1.1/"
   xmlns:cc="http://creativecommons.org/ns#"
   xmlns:rdf="http://www.w3.org/1999/02/22-rdf-syntax-ns#"
   xmlns:svg="http://www.w3.org/2000/svg"
   xmlns="http://www.w3.org/2000/svg"
   xmlns:sodipodi="http://sodipodi.sourceforge.net/DTD/sodipodi-0.dtd"
   xmlns:inkscape="http://www.inkscape.org/namespaces/inkscape"
   viewBox="0 0 512 512"
   version="1.1"
   id="svg935"
   sodipodi:docname="045-linkedin.svg"
   inkscape:version="0.92.4 (unknown)">
  <metadata
     id="metadata941">
    <rdf:RDF>
      <cc:Work
         rdf:about="">
        <dc:format>image/svg+xml</dc:format>
        <dc:type
           rdf:resource="http://purl.org/dc/dcmitype/StillImage" />
      </cc:Work>
    </rdf:RDF>
  </metadata>
  <defs
     id="defs939" />
  <sodipodi:namedview
     pagecolor="#ffffff"
     bordercolor="#666666"
     borderopacity="1"
     objecttolerance="10"
     gridtolerance="10"
     guidetolerance="10"
     inkscape:pageopacity="0"
     inkscape:pageshadow="2"
     inkscape:window-width="1920"
     inkscape:window-height="983"
     id="namedview937"
     showgrid="false"
     inkscape:zoom="0.921875"
     inkscape:cx="-3.6185348"
     inkscape:cy="264.49286"
     inkscape:window-x="0"
     inkscape:window-y="34"
     inkscape:window-maximized="1"
     inkscape:current-layer="svg935" />
  <path
     d="M 394.8178,59.661018 H 117.1822 c -31.717538,0 -57.521182,25.803644 -57.521182,57.521182 v 277.6356 c 0,31.71754 25.803644,57.52119 57.521182,57.52119 h 277.6356 c 31.71754,0 57.52119,-25.80365 57.52119,-57.52119 V 117.1822 c 0,-31.717538 -25.80365,-57.521182 -57.52119,-57.521182 z M 429.33052,394.8178 c 0,19.02993 -15.48279,34.51272 -34.51272,34.51272 H 117.1822 c -19.029924,0 -34.512708,-15.48279 -34.512708,-34.51272 V 117.1822 c 0,-19.029924 15.482784,-34.512708 34.512708,-34.512708 h 277.6356 c 19.02993,0 34.51272,15.482784 34.51272,34.512708 z m 0,0"
     id="path927"
     inkscape:connector-curvature="0"
     style="stroke-width:7.3;stroke:#000000;stroke-opacity:1;stroke-miterlimit:4;stroke-dasharray:none" />
  <g
     id="g1549"
     transform="matrix(0.79892163,0,0,0.79892163,85.962298,91.716548)"
     style="stroke-width:1.25168717">
    <g
       id="g1493"
       style="stroke-width:1.25168717">
	<path
   d="M 130.4,360.038 H 65.413 V 165.845 H 130.4 Z M 97.913,139.315 h -0.437 c -21.793,0 -35.92,-14.904 -35.92,-33.563 0,-19.035 14.542,-33.535 36.767,-33.535 22.227,0 35.899,14.496 36.331,33.535 0,18.663 -14.099,33.563 -36.741,33.563 z m 266.746,220.723 h -64.966 v -103.9 c 0,-26.107 -9.413,-43.921 -32.907,-43.921 -17.973,0 -28.642,12.018 -33.327,23.621 -1.736,4.144 -2.166,9.94 -2.166,15.728 v 108.468 h -64.954 c 0,0 0.85,-175.979 0,-194.192 h 64.964 v 27.531 c 8.624,-13.229 24.035,-32.1 58.534,-32.1 42.76,0 74.822,27.739 74.822,87.414 z M 230.883,193.99 c 0.111,-0.182 0.266,-0.401 0.42,-0.614 v 0.614 z"
   id="LinkedIn__x28_alt_x29_"
   inkscape:connector-curvature="0"
   sodipodi:nodetypes="cccccsssscsccsscscccccssccccc"
   style="stroke-width:1.25168717" />

</g>
    <g
       id="g1495"
       style="stroke-width:1.25168717">
</g>
    <g
       id="g1497"
       style="stroke-width:1.25168717">
</g>
    <g
       id="g1499"
       style="stroke-width:1.25168717">
</g>
    <g
       id="g1501"
       style="stroke-width:1.25168717">
</g>
    <g
       id="g1503"
       style="stroke-width:1.25168717">
</g>
    <g
       id="g1505"
       style="stroke-width:1.25168717">
</g>
    <g
       id="g1507"
       style="stroke-width:1.25168717">
</g>
    <g
       id="g1509"
       style="stroke-width:1.25168717">
</g>
    <g
       id="g1511"
       style="stroke-width:1.25168717">
</g>
    <g
       id="g1513"
       style="stroke-width:1.25168717">
</g>
    <g
       id="g1515"
       style="stroke-width:1.25168717">
</g>
    <g
       id="g1517"
       style="stroke-width:1.25168717">
</g>
    <g
       id="g1519"
       style="stroke-width:1.25168717">
</g>
    <g
       id="g1521"
       style="stroke-width:1.25168717">
</g>
    <g
       id="g1523"
       style="stroke-width:1.25168717">
</g>
  </g>
</svg>
