<?xml version="1.0" encoding="UTF-8" standalone="no"?>
<svg
   xmlns:dc="http://purl.org/dc/elements/1.1/"
   xmlns:cc="http://creativecommons.org/ns#"
   xmlns:rdf="http://www.w3.org/1999/02/22-rdf-syntax-ns#"
   xmlns:svg="http://www.w3.org/2000/svg"
   xmlns="http://www.w3.org/2000/svg"
   xmlns:sodipodi="http://sodipodi.sourceforge.net/DTD/sodipodi-0.dtd"
   xmlns:inkscape="http://www.inkscape.org/namespaces/inkscape"
   viewBox="0 -47 512.00004 512"
   version="1.1"
   id="svg891"
   sodipodi:docname="043-twitter.svg"
   inkscape:version="0.92.4 (unknown)">
  <metadata
     id="metadata897">
    <rdf:RDF>
      <cc:Work
         rdf:about="">
        <dc:format>image/svg+xml</dc:format>
        <dc:type
           rdf:resource="http://purl.org/dc/dcmitype/StillImage" />
      </cc:Work>
    </rdf:RDF>
  </metadata>
  <defs
     id="defs895" />
  <sodipodi:namedview
     pagecolor="#ffffff"
     bordercolor="#666666"
     borderopacity="1"
     objecttolerance="10"
     gridtolerance="10"
     guidetolerance="10"
     inkscape:pageopacity="0"
     inkscape:pageshadow="2"
     inkscape:window-width="1920"
     inkscape:window-height="983"
     id="namedview893"
     showgrid="false"
     inkscape:zoom="1.546875"
     inkscape:cx="256.00003"
     inkscape:cy="256"
     inkscape:window-x="0"
     inkscape:window-y="34"
     inkscape:window-maximized="1"
     inkscape:current-layer="svg891" />
  <path
     d="m 462.22222,85.823924 c -25.94455,1.195747 -25.37815,1.098199 -28.31087,1.343641 L 449.2767,43.286814 c 0,0 -47.96203,17.643555 -60.12089,20.799697 C 357.22309,35.385447 309.75824,34.117327 275.82422,54.973664 248.0357,72.057105 233.12034,101.3938 238.09527,135.68341 184.01291,128.17853 138.44553,102.54235 102.46929,59.325551 L 91.090821,45.659427 82.588434,61.273359 C 71.842448,81.003178 68.274089,103.56188 72.537869,124.79267 c 1.749566,8.71007 4.723199,17.01736 8.842231,24.79601 l -9.761068,-3.78233 -1.157986,16.30935 c -1.173719,16.56738 4.342448,35.90701 14.75803,51.72863 2.932726,4.45572 6.708768,9.34885 11.4949,14.17588 l -5.044162,-0.77408 6.154948,18.68826 c 8.090168,24.5537 24.893558,43.55035 46.700198,54.11067 -21.77832,9.24187 -39.37153,15.13878 -68.289717,24.65126 l -26.457465,8.69748 24.437284,13.3609 c 9.317382,5.09451 42.241318,22.10872 74.771918,27.21267 72.31119,11.34071 153.7258,2.10515 208.53505,-47.25716 46.16526,-41.57737 61.31347,-100.71962 58.16677,-162.26595 -0.47515,-9.31739 2.07683,-18.20996 7.18707,-25.03515 10.23622,-13.66613 39.28342,-53.493932 39.34635,-53.585186 z m -58.67024,39.110356 c -8.48666,11.33127 -12.73785,25.80294 -11.97635,40.74349 3.17503,62.08127 -13.71647,110.2258 -50.20876,143.08995 -42.62837,38.3929 -111.38694,53.46245 -188.63846,41.3445 -13.99024,-2.19324 -28.44933,-7.10525 -40.41624,-12.01095 24.24534,-8.34191 42.96821,-15.77756 73.20487,-30.08876 l 42.20985,-19.97841 -46.60265,-2.98307 c -22.3227,-1.4286 -40.91027,-12.24697 -52.33594,-29.81185 6.06684,-0.35243 11.91656,-1.3342 17.74111,-2.9579 l 44.44715,-12.37913 -44.81847,-10.97569 c -21.77832,-5.33366 -34.19205,-18.36415 -40.7718,-28.35807 -4.32043,-6.56716 -7.143017,-13.29482 -8.835942,-19.49697 4.493492,1.2052 9.732742,2.06424 18.181642,2.90127 l 41.48297,4.1033 -32.8673,-25.63933 C 99.665582,143.96552 90.175131,116.21477 97.132487,89.537032 171.04221,166.19697 257.82194,160.43536 266.55719,162.46183 c -1.92264,-18.67567 -1.97299,-18.71972 -2.47646,-20.49761 -11.18652,-39.54459 13.32942,-59.623694 24.38694,-66.420569 23.09678,-14.194771 59.759,-16.334528 85.15288,7.051757 5.4847,5.047309 12.90148,7.032878 19.8431,5.308486 6.23047,-1.548177 11.34386,-3.187609 16.35027,-4.971789 l -10.42188,29.761505 13.30425,0.009 c -2.51107,3.36697 -5.52246,7.39789 -9.14431,12.23123 z m 0,0"
     id="path889"
     inkscape:connector-curvature="0"
     style="stroke-width:8;fill:#000000;fill-opacity:1;stroke:#000000;stroke-opacity:1;stroke-miterlimit:4;stroke-dasharray:none" />
</svg>
